<svg class="app__sprite" xmlns="http://www.w3.org/2000/svg">
	<symbol id="logo" viewBox="0 0 466 200">
		<path d="M369.27603 6.58962434c19.049219 0 32.26925.27269445 34.811987.71490165 5.879162 1.02444669 11.192454 4.17148791 15.175586 9.00628671 4.166856 5.0559024 5.12222 7.4733017 5.666043 14.4012146.779723 9.7801493-3.8582 18.2189368-13.007646 23.694936-2.667669 1.599316-5.408094 3.1544114-6.092281 3.4639564-1.0509.4790578-.910535.9360053.970061 3.1470413 1.211843 1.4224332 3.314378 3.4492162 4.666585 4.5031433l2.469248 1.9236014 45.622295.6559407.447552 23.3485403h-27.970847c-21.634581 0-28.558029-.1989932-30.58634-.8844144-3.035117-1.0318168-10.33924-7.2374579-25.185594-21.4028287L365.66549 59.0501389l.111704 32.3990478h-27.222723V6.58962434h30.721559zm-4.011058 38.15511156h14.456124c14.06663 0 14.506097-.0442207 16.513096-1.5550953 3.587023-2.697464 4.856922-5.4759992 4.476247-9.7432988-.389495-4.3999616-2.079754-6.692069-6.320834-8.534599-2.38841-1.046557-4.689367-1.2160698-15.962659-1.2160698h-13.161974v21.0490629zM369.27603.6935283h-36.597782v96.6517545H371.679873l-.020577-5.9167324-.064671-18.5844948.617312.5888726c18.362092 17.5209864 23.77827 21.5008513 27.35133 22.7154471 2.743364.9278981 7.335724 1.1969075 32.47355 1.1969075H466l-.114644-6.0095959-.447551-23.3485404-.108764-5.7000508-5.68368-.0818084-43.654246-.6271972-.914945-.7126906c-.291018-.2277367-.643768-.5284376-1.020769-.8689372.327763-.1945711.627601-.373665.887019-.5284376 11.025633-6.5984685 16.804114-17.25124 15.850955-29.224737-.634215-8.0769146-2.072405-11.7155429-6.996203-17.6882882-4.83855-5.87324865-11.479798-9.80078563-18.700879-11.05886513C401.083765.798184 380.932204.6935283 369.27603.6935283zm1.868104 28.8982407h7.282812c10.308375 0 12.350649.1717238 13.608789.7230088 2.38841 1.0377129 2.630925 1.5410921 2.818324 3.6533685.188133 2.0990102-.071285 2.943626-2.147364 4.5046174-.068345.0508538-.120523.0906525-.163882.122344-1.370579.2542692-6.456789.2542692-12.821717.2542692h-8.576227l-.000735-9.2576079zm-84.79956-23.00214466h-40.566216L216.574357 91.4491867h24.522719l3.836888-12.3596913 42.946541.1916231 3.909643 12.831379 24.082516.1326622-29.52809-85.65553536zm-34.40118 54.25956086c-.329968 0 14.836065-42.2271028 14.94042-42.2234178.095536.0294805 14.409826 42.1873042 14.30988 42.1873042 0 0 0-.000737-.000735-.000737l-29.249565.0368506zM290.532742.6935283l1.372785 3.96954666 29.52809 85.65553534 2.712498 7.8683402-8.302111-.0456948-24.082517-.1326621-4.326328-.0243214-1.264755-4.1486406-2.644888-8.6775794-34.269634-.1525615-2.543472 8.1963106-1.286067 4.1442185H208.325893l2.691186-7.8196974 29.204736-84.86029939L241.58872.6935283h48.944022zM260.11102 54.942771l12.935625-.0162142c-1.748315-5.1922496-4.144809-12.2683019-6.31128-18.6390337-2.285524 6.3788389-4.810624 13.4762646-6.624345 18.6552479zM217.955225 5.90494019l-133.4275765.19973026c-13.4338847 0-21.1208887 12.55868455-21.7382007 21.20383545-.5438225 7.5764834.5658693 9.7432987 11.067522 21.609192 8.8848833 10.0381035 9.1127008 10.3918693 8.6717637 13.1040734-.316005 1.8867508-1.1464366 3.2649632-2.5794823 4.2672995L77.825404 67.770465H5.87916178v23.6801957H58.5432232c42.5129538 0 41.5348078-.0869674 47.2596418-3.6342062 8.032405-4.9822011 12.441776-17.2460809 9.031862-25.1173691-.624661-1.4298033-5.364735-7.9744699-10.523699-14.5338768-7.9515665-10.0970645-9.39931-12.3228407-9.39931-14.548617 0-1.8130495.7936868-6.5446666 6.716942-6.5446666l49.135095-.1400323v64.518031h25.096672V26.9834836h42.094798V5.90494019zM223.834387 0v32.8781056h-42.094799v64.4664401h-36.854995V32.843466l-43.255933.123081c-.382145 0-.614372.0412727-.73563.0722272-.036745.1024447-.071285.2498471-.088922.3920904.729016 1.6921796 5.333869 7.5388958 8.123532 11.0817125 1.009011 1.2824009 9.896099 12.6235416 11.299749 15.83544 4.549001 10.50021-.852479 25.9818842-11.333555 32.4830671l-.41595.2586912c-3.333485 2.0761629-5.558748 3.2760184-12.5329034 3.7882417-6.0952209.4481033-16.4410759.4680027-37.4017574.4680027H0V61.8736319h75.980817l.6040839-.4215708c.0235166-.0162143.0404192-.0294805.0514427-.0383247.0088187-.0213733.0235166-.0589609.0396843-.1171849-1.009746-1.4519136-4.0353097-4.8709123-7.217406-8.4653199C58.4947201 40.4427968 56.209196 36.8447042 56.924249 26.886935c.4232997-5.9314726 3.2276598-12.400227 7.5003407-17.30283087C69.6945233 3.53765763 76.8325606.20783739 84.5180948.20783739L217.945671.00884414 223.834387 0zm-15.859039 107.877184l-40.11793.036851-29.234132 84.925156 23.884094.251321 3.806758-12.846856 43.138349.347133 4.005179 12.831379 24.12661-.110552-29.608928-85.434432zm-19.401969 12.526256c0-.002948 0-.004422.000735-.004422 0 0 0 .001474-.000735.004422.043359.49822 13.789574 41.002189 13.939493 41.392069l.000735.001474v.002211s0-.000737-.000735-.003685c-.055117-.014741-3.010866-.021374-7.01825-.021374-8.562999 0-21.923394.029481-22.02334.058961v.000737c-.000735 0 0 0 0-.000737.052178-.080334 3.827335-10.398502 7.589998-20.71667 3.731798-10.233412 7.451103-20.467561 7.512099-20.712986zm23.581318-18.426037l1.374989 3.968073 29.608928 85.434432 2.701475 7.793165-8.227152.038324-24.125875.110552-4.341026.019162-1.29709-4.155273-2.724992-8.732119-34.43278-.276379-2.547147 8.595034-1.263285 4.261403-4.433623-.046431-23.884095-.251322-8.158806-.084756 2.662525-7.734204 29.234132-84.925156 1.36617-3.969547 4.185963-.003685 40.117931-.037588 4.183758-.003685zm-30.221096 53.906532c3.027033-.005159 7.032212-.005896 12.352854-.005896-1.78947-5.275532-3.875838-11.4399-4.35058-12.844645-.576158-1.705446-1.106752-3.273807-1.593988-4.715403-.535738 1.469602-1.11998 3.072603-1.758604 4.823744-2.036395 5.585814-3.536316 9.699078-4.649682 12.7422zm277.633126-47.659618l-54.235267.002211c-20.363947 0-24.281673 15.697619-24.113382 20.68719.080838 4.164118-1.154521 9.80226 10.641283 21.573078 9.311122 10.517162 10.317929 12.204919 8.994382 15.027675-1.89015 4.054303-.659201 4.231186-25.126067 4.231186-2.351665 0-4.942906-.001474-7.795769-.001474-24.33973 0-29.859528-.176883-31.754822-.972119-2.218649-.929372-8.14264-6.78051-8.14264-8.040801 0-.339025 1.469791-1.289771 3.269549-2.10638 4.873091-2.233883 10.877184-7.437188 13.236198-11.490754 1.147172-1.974455 2.528775-5.69047 3.072597-8.254535 2.38841-11.298394-9.612429-29.015425-27.345451-29.657363h-58.836447l.162412 84.741641 26.382004.117185.191808-32.855259c0-.00737.003674-.011792.011023-.011792.277055.001474 5.672656 4.929136 11.527566 10.55696 16.27793 15.661505 22.436352 20.702667 26.3019 21.579712 2.176025.486428 17.123794.721534 45.387864.728905h2.040804c46.473304 0 46.199188-.036114 52.459026-5.143607 6.246609-5.092753 9.611695-12.815902 8.693076-19.950915-.565135-4.393329-1.40365-5.903466-7.517244-13.554388-2.38106-2.983425-6.284089-7.869814-8.657065-10.85545-2.380326-2.984898-4.579133-6.235121-4.872356-7.230088-.596-1.967085.742244-6.448855 2.844045-6.832838.130811-.023584 2.882994-.033165 6.94035-.033165 12.196321 0 36.185506.080334 36.185506.080334l.055117-22.335149zm-158.053915 39.150078c-10.046018 0-13.594827-.856408-13.594827-.856408s.161677-20.208869.044829-20.319421l14.168045.074438c12.243354.067068 14.434077.235107 16.138299 1.25292 7.78254 4.63728 7.348952 15.087373-.764291 18.625031-2.403843 1.047294-4.696716 1.22344-15.992055 1.22344zm163.94704-45.046174l-.015433 5.907888-.055117 22.335886-.014698 5.901992-5.885041-.019162c-.239576-.001474-24.117791-.081071-36.166398-.081071-1.526378 0-2.705885.001474-3.614215.003685.691536 1.064245 1.837973 2.689356 3.297475 4.520094 1.809312 2.275893 4.508582 5.657304 6.742663 8.457213l1.906319 2.387919c6.414165 8.025324 7.99125 10.508317 8.761421 16.485484 1.181711 9.19054-2.961628 18.877089-10.813984 25.279512l-.127137.103919c-3.822924 3.121246-6.373011 4.924714-14.301795 5.693418-6.921979.670681-18.55831.670681-41.741314.670681h-2.042274c-42.822345-.011793-45.228392-.550548-46.682749-.875571-5.293451-1.200592-11.269618-5.946213-29.073925-23.074372-.571748-.54981-1.128799-1.08267-1.667477-1.595631l-.113909 19.682643L293.817724 200l-5.870343-.025795-26.382004-.117185-5.841682-.025796-.011758-5.858508-.162412-84.740904-.011758-5.908625h64.833926l.10656.004422c10.112893.365558 19.687843 5.423672 26.269564 13.877936 5.641056 7.246302 8.113979 15.803749 6.614792 22.897489-.676103 3.187577-2.286259 7.484357-3.746496 9.999779-2.406047 4.136849-7.515773 8.974595-12.569647 12.095841.545292.474636 1.041346.872622 1.394831 1.104044 2.528039.500431 14.862521.542441 29.489875.542441l4.274151.001474h3.521618c8.291088 0 16.185332 0 19.299818-.383983-1.424227-2.119647-5.19277-6.384735-7.445223-8.928901-11.394551-11.414842-12.296267-18.364128-12.24262-24.502701.003674-.336814.007349-.659626.00147-.97433-.110969-3.777186 1.333835-11.789244 7.468005-18.151868 3.770747-3.912797 10.739759-8.576609 22.521599-8.576609h60.129862zm-171.62596 38.93487c1.885741.120133 4.408636.215208 7.67892.215208 10.31058 0 12.360937-.174672 13.647004-.734801 2.306836-1.004548 2.749243-2.717364 2.808035-3.648947.107294-1.724608-.87967-3.389518-2.648563-4.466292-1.386012-.394302-8.495388-.433364-13.22003-.459159l-8.221273-.042747c-.002204 1.353154-.008818 2.830126-.016167 4.30415-.009554 1.673018-.018373 3.343087-.027926 4.832588zM87.3129014 108.555235v-.000737H60.304767l-13.1472755 37.470428c-.0007349.000737-.0007349.001474-.0014698.001474-.1756399 0-13.3515764-37.455687-13.3515764-37.455687l-24.0531206-.016215 28.7931948 84.86767h16.6306789l18.7177813-51.481026c-.0734895.197519 17.8579539 52.135493 17.8579539 52.135493h16.7997044l29.160643-85.212592h-24.170704s-12.471172 36.320689-12.912109 36.711305c-.005144.004422-.011024.007371-.017638.007371-.401252 0-3.4789936-8.11524-6.9263871-18.262421l-6.3715415-18.765063zM1.53960549 102.65398l8.21612859.005159 24.05312062.015478 4.1573023.002948 1.3830728 3.931222c2.2487794 6.392842 5.1905649 14.729185 7.7281581 21.882623l7.6818598-21.893679 1.3823379-3.939329h35.3800607l1.3566166 3.995342 6.3708067 18.764326c.4027225 1.186589.7922174 2.320114 1.1662784 3.398362 2.480272-7.10848 5.380903-15.507469 7.566481-21.871568l1.365436-3.976917H145.945047l-2.672814 7.810854-29.160642 85.211854-1.362496 3.982076H87.5657053l-1.3698447-3.967336s-4.4843306-12.987626-8.9591076-25.999573c-1.2103725-3.519232-2.4207449-7.041412-3.5407252-10.309324l-12.996622 35.745083-1.4095291 3.876683H34.3350397l-1.3558817-3.997553-28.79319481-84.866196-2.6463577-7.800535z"></path>
	</symbol>
	<symbol id="bad" viewBox="0 0 16 16">
		<path d="M8 16A8 8 0 1 0 8 0a8 8 0 0 0 0 16zm0-1A7 7 0 1 0 8 1a7 7 0 0 0 0 14z" fill-rule="evenodd"></path>
		<path d="M11 12a3 3 0 0 0-6 0h6zm-1 0a2 2 0 1 0-4 0h4zm1-5a1 1 0 1 0 0-2 1 1 0 0 0 0 2zM5 7a1 1 0 1 0 0-2 1 1 0 0 0 0 2z" fill-rule="evenodd" fill="currentColor"></path>
	</symbol>
	<symbol id="ok" viewBox="0 0 16 16">
		<path d="M8 16A8 8 0 1 0 8 0a8 8 0 0 0 0 16zm0-1A7 7 0 1 0 8 1a7 7 0 0 0 0 14z" fill-rule="evenodd"></path>
		<path d="M11 5L7 9 5 7 4 8l3 3 5-5z" fill="currentColor"></path>
	</symbol>
	<symbol id="cross" viewBox="0 0 16 16">
		<path d="M16 2l-2-2-6 6-6-6-2 2 6 6-6 6 2 2 6-6 6 6 2-2-6-6"></path>
	</symbol>
	<symbol id="film" viewBox="0 0 16 16">
		<path d="M1 12v2H0V2h1v2h14V2h1v12h-1v-2H1zm0-1V5h14v6H1zm-1 3h16v1H0v-1zM0 1h16v1H0V1zm3 1h1v2H3V2zm0 10h1v2H3v-2zM6 2h1v2H6V2zm6 10h1v2h-1v-2zM9 2h1v2H9V2zm3 0h1v2h-1V2zM6 12h1v2H6v-2zm3 0h1v2H9v-2z" fill-rule="evenodd"></path>
	</symbol>
</svg>